<?xml version="1.0" encoding="utf-8"?>
<!-- Generator: Adobe Illustrator 21.0.0, SVG Export Plug-In . SVG Version: 6.00 Build 0)  -->
<svg version="1.1" id="Layer_1" xmlns="http://www.w3.org/2000/svg" xmlns:xlink="http://www.w3.org/1999/xlink" x="0px" y="0px"
	 viewBox="0 0 12 25" style="enable-background:new 0 0 12 25;" xml:space="preserve">
<style type="text/css">
	.st0{fill:#FFFFFF;}
</style>
<g>
	<path class="st0" d="M9,3c0-1.7-1.4-3-3.1-3C4.2,0,2.9,1.4,2.9,3c0,1.7,1.4,3,3.1,3C7.6,6.1,9,4.7,9,3z M7.6,3
		c0,0.9-0.8,1.7-1.7,1.7C5,4.7,4.2,4,4.2,3c0-0.9,0.8-1.7,1.7-1.7C6.9,1.4,7.6,2.1,7.6,3z"/>
	<path class="st0" d="M7.3,7.1h0.7v8.4H6.6v-7c-1.5,0.1-5,0.6-5,2.9v3.6H0.2v-3.6C0.2,7.1,7,7.1,7.3,7.1z"/>
	<path class="st0" d="M9.9,23.6c0-4.2-2.5-5.2-2.8-5.3c-3.1-0.6-3.7-2.6-3.6-3.7v-4h1.4v4.1c0,0,0,0.1,0,0.1c0,0.2-0.1,1.7,2.5,2.2
		c0,0,0,0,0.1,0c0.2,0,3.8,1.1,3.8,6.6V25H9.9L9.9,23.6L9.9,23.6z"/>
	<path class="st0" d="M0.4,24.6L0,23.3c2.9-0.9,4.3-5,4.3-5.1l1.3,0.4C5.5,18.9,4,23.5,0.4,24.6z"/>
	<path class="st0" d="M12,11.1v1.4c-2.3,0-3.4-1.8-3.7-2.8l1.3-0.4C9.6,9.3,10.2,11.1,12,11.1z"/>
</g>
</svg>
