<?xml version="1.0" encoding="utf-8"?>
<!-- Generator: Adobe Illustrator 21.0.0, SVG Export Plug-In . SVG Version: 6.00 Build 0)  -->
<svg version="1.1" id="Layer_1" xmlns="http://www.w3.org/2000/svg" xmlns:xlink="http://www.w3.org/1999/xlink" x="0px" y="0px"
	 viewBox="0 0 39 33" style="enable-background:new 0 0 39 33;" xml:space="preserve">
<style type="text/css">
	.st0{fill:#FBF7BE;}
</style>
<g>
	<g>
		<path class="st0" d="M27,26.2c-0.5,0-0.8-0.3-0.8-0.8V4.8c0-2.6,2.2-4.8,5-4.8C31.7,0,32,0.3,32,0.8s-0.3,0.8-0.8,0.8
			c-1.8,0-3.3,1.4-3.3,3.2v20.6C27.9,25.9,27.4,26.2,27,26.2z"/>
	</g>
	<g>
		<path class="st0" d="M18.1,24.6c-0.5,0-0.8-0.3-0.8-0.8v-19c0-2.6,2.2-4.8,5-4.8c0.5,0,0.8,0.3,0.8,0.8s-0.3,0.8-0.8,0.8
			c-1.8,0-3.3,1.4-3.3,3.2v18.9C19,24.2,18.6,24.6,18.1,24.6z"/>
	</g>
	<g>
		<path class="st0" d="M27,8.7h-8.9c-0.5,0-0.8-0.3-0.8-0.8s0.3-0.8,0.8-0.8H27c0.5,0,0.8,0.3,0.8,0.8S27.4,8.7,27,8.7z"/>
	</g>
	<g>
		<path class="st0" d="M27,15.1h-8.9c-0.5,0-0.8-0.3-0.8-0.8c0-0.5,0.3-0.8,0.8-0.8H27c0.5,0,0.8,0.3,0.8,0.8
			C27.9,14.8,27.4,15.1,27,15.1z"/>
	</g>
	<g>
		<path class="st0" d="M27,21.5h-8.9c-0.5,0-0.8-0.3-0.8-0.8c0-0.5,0.3-0.8,0.8-0.8H27c0.5,0,0.8,0.3,0.8,0.8
			C27.9,21.2,27.4,21.5,27,21.5z"/>
	</g>
	<g>
		<g>
			<path class="st0" d="M35.8,26.8c-1.1,0-2.2-0.4-3.1-1.2l-0.5-0.5c-1-1-2.7-1-3.7,0l-0.5,0.5c-1.7,1.6-4.4,1.6-6.1,0l-0.5-0.5
				c-1-1-2.7-1-3.7,0l-0.5,0.5c-1.7,1.6-4.4,1.6-6.1,0l-0.5-0.5c-1-1-2.7-1-3.7,0l-0.5,0.5c-1.7,1.6-4.4,1.6-6.1,0
				c-0.3-0.3-0.3-0.8,0-1.1s0.8-0.3,1.2,0c1,1,2.7,1,3.7,0L5.7,24c1.7-1.6,4.4-1.6,6.1,0l0.5,0.5c1,1,2.7,1,3.7,0l0.5-0.5
				c1.7-1.6,4.4-1.6,6.1,0l0.5,0.5c1,1,2.7,1,3.7,0l0.5-0.5c1.7-1.6,4.4-1.6,6.1,0l0.5,0.5c1,1,2.7,1,3.7,0c0.3-0.3,0.8-0.3,1.2,0
				c0.3,0.3,0.3,0.8,0,1.1C38,26.4,36.9,26.8,35.8,26.8z"/>
		</g>
	</g>
	<g>
		<g>
			<path class="st0" d="M35.8,33c-1.2,0-2.2-0.4-3.1-1.2l-0.5-0.5c-1-1-2.7-1-3.7,0L28,31.8c-0.8,0.8-1.9,1.2-3.1,1.2
				s-2.2-0.4-3-1.2l-0.5-0.5c-1-1-2.7-1-3.7,0l-0.6,0.5c-0.8,0.8-1.9,1.2-3.1,1.2s-2.2-0.4-3-1.2l-0.5-0.5c-1-1-2.7-1-3.7,0
				l-0.5,0.5C5.5,32.6,4.4,33,3.2,33s-2.2-0.4-3-1.2c-0.3-0.3-0.3-0.8,0-1.1s0.8-0.3,1.2,0c1,1,2.7,1,3.7,0l0.5-0.5
				c1.7-1.6,4.4-1.6,6.1,0l0.5,0.5c1,1,2.7,1,3.7,0l0.5-0.5c1.7-1.6,4.4-1.6,6.1,0l0.5,0.5c1,1,2.7,1,3.7,0l0.5-0.5
				c1.7-1.6,4.4-1.6,6.1,0l0.5,0.5c1,1,2.7,1,3.7,0c0.3-0.3,0.8-0.3,1.2,0c0.3,0.3,0.3,0.8,0,1.1C38,32.6,36.9,33,35.8,33z"/>
		</g>
	</g>
</g>
</svg>
