<?xml version="1.0" encoding="utf-8"?>
<!-- Generator: Adobe Illustrator 21.0.0, SVG Export Plug-In . SVG Version: 6.00 Build 0)  -->
<svg version="1.1" id="Layer_1" xmlns="http://www.w3.org/2000/svg" xmlns:xlink="http://www.w3.org/1999/xlink" x="0px" y="0px"
	 viewBox="0 0 24 30" style="enable-background:new 0 0 24 30;" xml:space="preserve">
<style type="text/css">
	.st0{fill:#FBF7BE;}
</style>
<g transform="translate(0,-952.36218)">
	<g transform="translate(7.0019695,959.32871)">
		<path class="st0" d="M4.3-6.7C2.6-5.6,0.7-5-1.4-5.2c-0.2-0.1-0.4,0-0.6,0c-0.7,0.4-1.1,1-1.1,1.6c0,0.3,0.2,0.7,0.4,1
			c1,1.2,1,2.7,1,3.9c0.2,1.5,0.5,3.5,1.4,5.1c0.9,1.7,2.7,3,5.3,3c2.7,0,4.5-1.3,5.4-2.9C11.3,5,11.5,3,11.7,1.3
			c0.2-1.6,0.1-3,1-3.8c0.3-0.2,0.4-0.6,0.5-1c0-0.7-0.5-1.4-1.1-1.7c-0.2-0.1-0.4-0.1-0.6-0.1C9.5-5.2,7.1-5.3,5.6-6.7
			C5.1-7.1,4.8-7,4.3-6.7z M5-5c1.9,1.1,4,1.7,6.1,1.6c-0.5,0.6-0.9,1.3-1,2H-0.1c-0.2-0.7-0.5-1.4-1-2C1-3.4,3.3-3.9,5-5z M0.1,0.4
			h9.8c0,0.3,0,0.5,0,0.8C9.7,2.8,9.4,4.6,8.7,5.8s-1.6,2-3.8,2C3,7.7,2,6.9,1.3,5.6c-0.7-1.3-1-3-1.2-4.4C0.1,0.9,0.1,0.6,0.1,0.4
			L0.1,0.4z M5,10c-3.1,0-6.2,0.5-9.7,1.6c-1.4,0.5-2.1,2.2-2.2,3.2c0,2.4-0.1,4.9-0.2,7.3c0,0.5,0.4,0.9,0.9,0.9h22.2
			c0.5,0,0.9-0.4,0.9-0.9c0-2.4-0.1-4.9-0.2-7.3c-0.2-1.5-0.8-2.6-2.2-3.2C11.2,10.6,8.1,10,5,10L5,10z M5,11.8c2.8,0,5.7,0.5,9,1.5
			c0.7,0.5,1.1,1.1,1.1,1.6c0,2.2,0.1,4.3,0.1,6.5H-5.2c0-2.2,0.1-4.3,0.1-6.5c0-0.5,0.4-1.1,1-1.6C-0.7,12.3,2.2,11.8,5,11.8
			L5,11.8z M-1.9,15.1c-0.3,0.2-0.7,0.2-1,0.2c-0.2,0.1-0.2,0.2-0.3,0.4c0,0.1,0.1,0.2,0.1,0.3C-3,16.1-3,16.2-3,16.5
			c0.1,0.3,0.1,0.7,0.3,0.9c0.2,0.3,0.5,0.6,1,0.6c0.5,0,0.9-0.2,1-0.5c0.2-0.3,0.2-0.6,0.2-0.9c0-0.2,0-0.4,0.1-0.5
			c0.1-0.1,0.1-0.2,0.1-0.3c0-0.2-0.2-0.3-0.3-0.4c-0.4,0-0.7-0.1-1-0.2C-1.7,14.9-1.7,15-1.9,15.1z"/>
	</g>
</g>
</svg>
